<svg width="191" height="60" viewBox="0 0 191 60" fill="none" xmlns="http://www.w3.org/2000/svg">
<rect width="191" height="60" fill="#F5F5F5"/>
<g clip-path="url(#clip0_3_2)">
<rect width="191" height="60" fill="white"/>
<path d="M24.6875 32.1836H11.6094L11.5391 25.3633H22.7539C24.6758 25.3633 26.2812 25.0938 27.5703 24.5547C28.8594 24.0156 29.832 23.2305 30.4883 22.1992C31.168 21.168 31.5078 19.9141 31.5078 18.4375C31.5078 16.7969 31.1914 15.4609 30.5586 14.4297C29.9492 13.3984 28.9883 12.6484 27.6758 12.1797C26.3633 11.6875 24.6992 11.4414 22.6836 11.4414H14.7383V55H5.07031V3.8125H22.6836C25.5898 3.8125 28.1797 4.09375 30.4531 4.65625C32.75 5.19531 34.6953 6.03906 36.2891 7.1875C37.8828 8.33594 39.0898 9.77734 39.9102 11.5117C40.7539 13.2461 41.1758 15.3086 41.1758 17.6992C41.1758 19.8086 40.6836 21.7539 39.6992 23.5352C38.7383 25.293 37.25 26.7227 35.2344 27.8242C33.2422 28.9258 30.7109 29.5586 27.6406 29.7227L24.6875 32.1836ZM24.2656 55H8.76172L12.8047 47.4062H24.2656C26.1875 47.4062 27.7695 47.0898 29.0117 46.457C30.2773 45.8242 31.2148 44.957 31.8242 43.8555C32.457 42.7305 32.7734 41.4414 32.7734 39.9883C32.7734 38.3945 32.4922 37.0117 31.9297 35.8398C31.3906 34.668 30.5234 33.7656 29.3281 33.1328C28.1562 32.5 26.6094 32.1836 24.6875 32.1836H14.6328L14.7031 25.3633H27.5L29.7148 28C32.668 28.0234 35.0703 28.6094 36.9219 29.7578C38.7969 30.9062 40.1797 32.3828 41.0703 34.1875C41.9609 35.9922 42.4062 37.9375 42.4062 40.0234C42.4062 43.3047 41.6914 46.0586 40.2617 48.2852C38.8555 50.5117 36.793 52.1875 34.0742 53.3125C31.3789 54.4375 28.1094 55 24.2656 55ZM67.1562 55.7031C64.2734 55.7031 61.6836 55.2344 59.3867 54.2969C57.0898 53.3594 55.1328 52.0586 53.5156 50.3945C51.9219 48.707 50.6914 46.75 49.8242 44.5234C48.9805 42.2734 48.5586 39.8594 48.5586 37.2812V35.875C48.5586 32.9453 48.9805 30.2852 49.8242 27.8945C50.668 25.4805 51.8633 23.4062 53.4102 21.6719C54.957 19.9375 56.8086 18.6016 58.9648 17.6641C61.1211 16.7266 63.5 16.2578 66.1016 16.2578C68.7969 16.2578 71.1758 16.7148 73.2383 17.6289C75.3008 18.5195 77.0234 19.7852 78.4062 21.4258C79.7891 23.0664 80.832 25.0352 81.5352 27.332C82.2383 29.6055 82.5898 32.125 82.5898 34.8906V38.793H52.7773V32.3945H73.4492V31.6914C73.4023 30.2148 73.1211 28.8672 72.6055 27.6484C72.0898 26.4062 71.293 25.4219 70.2148 24.6953C69.1367 23.9453 67.7422 23.5703 66.0312 23.5703C64.6484 23.5703 63.4414 23.875 62.4102 24.4844C61.4023 25.0703 60.5586 25.9141 59.8789 27.0156C59.2227 28.0938 58.7305 29.3828 58.4023 30.8828C58.0742 32.3828 57.9102 34.0469 57.9102 35.875V37.2812C57.9102 38.875 58.1211 40.3516 58.543 41.7109C58.9883 43.0703 59.6328 44.2539 60.4766 45.2617C61.3438 46.2461 62.375 47.0195 63.5703 47.582C64.7891 48.1211 66.1719 48.3906 67.7188 48.3906C69.6641 48.3906 71.4219 48.0156 72.9922 47.2656C74.5859 46.4922 75.9688 45.3555 77.1406 43.8555L81.8164 48.707C81.0195 49.8789 79.9414 51.0039 78.582 52.082C77.2461 53.1602 75.6289 54.0391 73.7305 54.7188C71.832 55.375 69.6406 55.7031 67.1562 55.7031ZM97.918 25.082V55H88.6367V16.9609H97.3555L97.918 25.082ZM96.4414 34.6094H93.6992C93.7227 31.8438 94.0977 29.3359 94.8242 27.0859C95.5508 24.8359 96.5703 22.9023 97.8828 21.2852C99.2188 19.668 100.801 18.4258 102.629 17.5586C104.457 16.6914 106.496 16.2578 108.746 16.2578C110.574 16.2578 112.227 16.5156 113.703 17.0312C115.18 17.5469 116.445 18.3672 117.5 19.4922C118.578 20.6172 119.398 22.0938 119.961 23.9219C120.547 25.7266 120.84 27.9531 120.84 30.6016V55H111.488V30.5312C111.488 28.7969 111.23 27.4258 110.715 26.418C110.223 25.4102 109.496 24.6953 108.535 24.2734C107.598 23.8516 106.438 23.6406 105.055 23.6406C103.625 23.6406 102.371 23.9336 101.293 24.5195C100.238 25.082 99.3477 25.8672 98.6211 26.875C97.918 27.8828 97.3789 29.043 97.0039 30.3555C96.6289 31.668 96.4414 33.0859 96.4414 34.6094ZM147.031 16.9609V23.6406H125.234V16.9609H147.031ZM131.07 7.60938H140.387V44.0312C140.387 45.1562 140.539 46.0234 140.844 46.6328C141.148 47.2422 141.605 47.6523 142.215 47.8633C142.824 48.0742 143.551 48.1797 144.395 48.1797C145.004 48.1797 145.566 48.1445 146.082 48.0742C146.598 48.0039 147.031 47.9336 147.383 47.8633L147.418 54.8242C146.645 55.082 145.766 55.293 144.781 55.457C143.82 55.6211 142.73 55.7031 141.512 55.7031C139.426 55.7031 137.598 55.3516 136.027 54.6484C134.457 53.9219 133.238 52.7617 132.371 51.168C131.504 49.5508 131.07 47.418 131.07 44.7695V7.60938Z" fill="#141414"/>
<path d="M151.566 36.3672V35.6289C151.566 32.8398 151.965 30.2734 152.762 27.9297C153.559 25.5625 154.719 23.5117 156.242 21.7773C157.766 20.043 159.629 18.6953 161.832 17.7344C164.035 16.75 166.543 16.2578 169.355 16.2578C172.215 16.2578 174.746 16.75 176.949 17.7344C179.176 18.6953 181.051 20.043 182.574 21.7773C184.098 23.5117 185.258 25.5625 186.055 27.9297C186.852 30.2734 187.25 32.8398 187.25 35.6289V36.3672C187.25 39.1328 186.852 41.6992 186.055 44.0664C185.258 46.4102 184.098 48.4609 182.574 50.2188C181.051 51.9531 179.188 53.3008 176.984 54.2617C174.781 55.2227 172.262 55.7031 169.426 55.7031C166.613 55.7031 164.094 55.2227 161.867 54.2617C159.641 53.3008 157.766 51.9531 156.242 50.2188C154.719 48.4609 153.559 46.4102 152.762 44.0664C151.965 41.6992 151.566 39.1328 151.566 36.3672ZM160.848 35.6289V36.3672C160.848 38.0312 161.012 39.5898 161.34 41.043C161.668 42.4961 162.172 43.7734 162.852 44.875C163.531 45.9766 164.41 46.8438 165.488 47.4766C166.59 48.0859 167.902 48.3906 169.426 48.3906C170.926 48.3906 172.215 48.0859 173.293 47.4766C174.371 46.8438 175.25 45.9766 175.93 44.875C176.633 43.7734 177.148 42.4961 177.477 41.043C177.805 39.5898 177.969 38.0312 177.969 36.3672V35.6289C177.969 33.9883 177.805 32.4531 177.477 31.0234C177.148 29.5703 176.633 28.293 175.93 27.1914C175.25 26.0664 174.359 25.1875 173.258 24.5547C172.18 23.8984 170.879 23.5703 169.355 23.5703C167.855 23.5703 166.566 23.8984 165.488 24.5547C164.41 25.1875 163.531 26.0664 162.852 27.1914C162.172 28.293 161.668 29.5703 161.34 31.0234C161.012 32.4531 160.848 33.9883 160.848 35.6289Z" fill="#2E4EC0"/>
</g>
<defs>
<clipPath id="clip0_3_2">
<rect width="191" height="60" fill="white"/>
</clipPath>
</defs>
</svg>
